<svg xmlns="http://www.w3.org/2000/svg" version="1.1" xmlns:xlink="http://www.w3.org/1999/xlink" xmlns:svgjs="http://svgjs.dev/svgjs" width="1000" height="1000" viewBox="0 0 1000 1000"><rect width="1000" height="1000" fill="#ffffff"></rect><g transform="matrix(0.7,0,0,0.7,149.57575757575756,449.62568276694185)"><svg viewBox="0 0 396 57" data-background-color="#ffffff" preserveAspectRatio="xMidYMid meet" height="143" width="1000" xmlns="http://www.w3.org/2000/svg" xmlns:xlink="http://www.w3.org/1999/xlink"><g id="tight-bounds" transform="matrix(1,0,0,1,0.2400000000000091,0.18467667167519153)"><svg viewBox="0 0 395.52 56.63064718162839" height="56.63064718162839" width="395.52"><g><svg viewBox="0 0 395.52000000000004 56.6306471816284" height="56.63064718162839" width="395.52"><g><svg viewBox="0 0 395.52000000000004 56.6306471816284" height="56.6306471816284" width="395.52000000000004"><g id="textblocktransform"><svg viewBox="0 0 395.52000000000004 56.6306471816284" height="56.6306471816284" width="395.52000000000004" id="textblock"><g><svg viewBox="0 0 395.52000000000004 56.6306471816284" height="56.6306471816284" width="395.52000000000004"><g transform="matrix(1,0,0,1,0,0)"><svg width="395.52000000000004" viewBox="1.5 -30.649999618530273 287.3800048828125 41.150001525878906" height="56.6306471816284" data-palette-color="#f0980c"><path d="M26.1 0Q26.1-1.15 25.45-1.93 24.8-2.7 23.78-2.7 22.75-2.7 21.68-1.85 20.6-1 19.18-0.13 17.75 0.75 15.75 0.75L15.75 0.75Q8.95 0.75 5.23-2.75 1.5-6.25 1.5-13.5L1.5-13.5Q1.5-28.65 15.65-28.65L15.65-28.65Q18.2-28.65 20.88-27.4 23.55-26.15 24.15-26.15 24.75-26.15 25.15-26.78 25.55-27.4 25.55-28L25.55-28 26.5-28 26.5-17.85 25.5-17.85Q25.5-21.65 22.53-24.65 19.55-27.65 15.65-27.65L15.65-27.65Q12.65-27.65 11.1-24.43 9.55-21.2 9.55-13.78 9.55-6.35 11.13-3.3 12.7-0.25 15.75-0.25L15.75-0.25Q20.55-0.25 20.55-8.8L20.55-8.8 20.55-12.5 17.4-12.5 17.4-13.5 29.4-13.5 29.4-12.5 27.05-12.5 27.05 0 26.1 0ZM41.4-12.05L41.4-12.05 41.4-3.8Q42.75-1.1 44.92-1.1 47.1-1.1 48.65-3.6 50.2-6.1 50.2-11.63 50.2-17.15 49-19.38 47.8-21.6 45.35-21.6 42.9-21.6 42.15-19.6 41.4-17.6 41.4-12.05ZM41.4-23L41.4-20.7Q43.1-23.6 47.5-23.6 51.9-23.6 54.85-20.4 57.8-17.2 57.8-11.35 57.8-5.5 54.9-2.2 52 1.1 47.85 1.1L47.85 1.1Q45.8 1.1 44 0.25 42.2-0.6 41.4-2.3L41.4-2.3 41.4 9.5 43.9 9.5 43.9 10.5 33.9 10.5 33.9-22 31.4-22 31.4-23 41.4-23ZM76.3-22L70.5-22 70.5-9.8Q70.5-5.5 70.84-4.58 71.2-3.65 71.59-3L71.59-3Q72.34-1.7 74.22-1.7 76.09-1.7 76.84-2.2L76.84-2.2 76.84-1.2Q74.45 0.5 71.59 0.5L71.59 0.5Q67.39 0.5 65.2-1.5 63-3.5 63-8.65L63-8.65 63-22 59.3-22 59.3-23 63-23Q65.39-23.4 67.25-25.33 69.09-27.25 69.8-30.65L69.8-30.65 70.5-30.65 70.5-23 76.3-23 76.3-22ZM87.89-9.9L79.34-9.9 79.34-13.7 87.89-13.7 87.89-9.9ZM100.89-12.05L100.89-12.05 100.89-3.8Q102.24-1.1 104.42-1.1 106.59-1.1 108.14-3.6 109.69-6.1 109.69-11.63 109.69-17.15 108.49-19.38 107.29-21.6 104.84-21.6 102.39-21.6 101.64-19.6 100.89-17.6 100.89-12.05ZM100.89-23L100.89-20.7Q102.59-23.6 106.99-23.6 111.39-23.6 114.34-20.4 117.29-17.2 117.29-11.35 117.29-5.5 114.39-2.2 111.49 1.1 107.34 1.1L107.34 1.1Q105.29 1.1 103.49 0.25 101.69-0.6 100.89-2.3L100.89-2.3 100.89 9.5 103.39 9.5 103.39 10.5 93.39 10.5 93.39-22 90.89-22 90.89-23 100.89-23ZM133.29-1L133.29 0 120.79 0 120.79-1 123.29-1 123.29-22 120.79-22 120.79-23 130.79-23 130.79-17.05Q131.24-19.5 132.41-21.05 133.59-22.6 135.01-23.1 136.44-23.6 137.76-23.6 139.09-23.6 140.31-23.13 141.54-22.65 142.14-21.23 142.74-19.8 142.19-18.38 141.64-16.95 140.26-16.35 138.89-15.75 137.74-16.2 136.59-16.65 136.09-17.43 135.59-18.2 135.39-18.9L135.39-18.9Q134.89-20.75 134.04-20.75L134.04-20.75Q133.09-20.75 131.94-17.48 130.79-14.2 130.79-10.55L130.79-10.55 130.79-1 133.29-1ZM153.19-3.03Q154.28-0.5 156.99-0.5 159.69-0.5 160.84-3.05 161.99-5.6 161.99-11.48 161.99-17.35 160.84-19.93 159.69-22.5 156.99-22.5 154.28-22.5 153.19-19.93 152.09-17.35 152.09-11.45 152.09-5.55 153.19-3.03ZM156.88 0.5Q152.13 0.5 148.28-2.6 144.44-5.7 144.44-11.4L144.44-11.4Q144.44-14.45 145.56-16.85 146.69-19.25 148.56-20.65 150.44-22.05 152.59-22.78 154.74-23.5 156.99-23.5 159.24-23.5 161.41-22.78 163.59-22.05 165.46-20.65 167.34-19.25 168.49-16.85 169.63-14.45 169.63-11.45 169.63-8.45 168.49-6.1 167.34-3.75 165.44-2.35L165.44-2.35Q161.63 0.5 156.88 0.5ZM215.13-13.9L215.13-1 217.63-1 217.63 0 205.13 0 205.13-1 207.63-1 207.63-15Q207.63-18.55 206.58-20.05 205.53-21.55 203.43-21.55L203.43-21.55Q202.23-21.55 200.93-20.85 199.63-20.15 198.78-18.9L198.78-18.9Q199.38-17.1 199.38-13.9L199.38-13.9 199.38-1 201.88-1 201.88 0 188.88 0 188.88-1 191.88-1 191.88-15Q191.88-18.55 190.83-20.05 189.78-21.55 187.68-21.55L187.68-21.55Q184.83-21.55 183.13-18.55L183.13-18.55 183.13-1 185.63-1 185.63 0 173.13 0 173.13-1 175.63-1 175.63-22 173.13-22 173.13-23 183.13-23 183.13-20.4Q184.08-21.7 186.11-22.63 188.13-23.55 190.48-23.55L190.48-23.55Q196.43-23.55 198.23-20.2L198.23-20.2Q199.53-21.8 201.68-22.68 203.83-23.55 206.23-23.55L206.23-23.55Q215.13-23.55 215.13-13.9L215.13-13.9ZM230.13-12.05L230.13-12.05 230.13-3.8Q231.48-1.1 233.66-1.1 235.83-1.1 237.38-3.6 238.93-6.1 238.93-11.63 238.93-17.15 237.73-19.38 236.53-21.6 234.08-21.6 231.63-21.6 230.88-19.6 230.13-17.6 230.13-12.05ZM230.13-23L230.13-20.7Q231.83-23.6 236.23-23.6 240.63-23.6 243.58-20.4 246.53-17.2 246.53-11.35 246.53-5.5 243.63-2.2 240.73 1.1 236.58 1.1L236.58 1.1Q234.53 1.1 232.73 0.25 230.93-0.6 230.13-2.3L230.13-2.3 230.13 9.5 232.63 9.5 232.63 10.5 222.63 10.5 222.63-22 220.13-22 220.13-23 230.13-23ZM265.03-22L259.23-22 259.23-9.8Q259.23-5.5 259.58-4.58 259.93-3.65 260.33-3L260.33-3Q261.08-1.7 262.95-1.7 264.83-1.7 265.58-2.2L265.58-2.2 265.58-1.2Q263.18 0.5 260.33 0.5L260.33 0.5Q256.13 0.5 253.93-1.5 251.73-3.5 251.73-8.65L251.73-8.65 251.73-22 248.03-22 248.03-23 251.73-23Q254.13-23.4 255.98-25.33 257.83-27.25 258.53-30.65L258.53-30.65 259.23-30.65 259.23-23 265.03-23 265.03-22ZM279.07-0.4L279.07-0.4Q284.27-0.4 284.27-3.25L284.27-3.25Q284.27-4.85 282.47-5.88 280.68-6.9 278.13-7.55 275.57-8.2 273.1-9.05 270.63-9.9 269-11.75 267.38-13.6 267.68-16.6 267.97-19.6 270.75-21.55 273.52-23.5 277.6-23.5 281.68-23.5 284.18-22.2 286.68-20.9 286.97-18.7L286.97-18.7Q287.18-17.35 286.55-16.2 285.93-15.05 284.5-15 283.07-14.95 282.15-15.75 281.22-16.55 281.27-17.6 281.32-18.65 282.07-19.48 282.82-20.3 282.82-20.8L282.82-20.8Q282.82-21.65 281.2-22.08 279.57-22.5 277.45-22.5 275.32-22.5 273.97-21.55 272.63-20.6 272.63-19.2 272.63-17.8 274.3-16.8 275.97-15.8 278.38-15.18 280.77-14.55 283.15-13.78 285.52-13 287.2-11.3 288.88-9.6 288.88-7L288.88-7Q288.88-3.55 286.43-1.48 283.97 0.6 279.02 0.6 274.07 0.6 271-0.9 267.93-2.4 267.63-4.75L267.63-4.75Q267.43-6.1 268.07-7.25 268.72-8.4 270.13-8.45 271.52-8.5 272.45-7.7 273.38-6.9 273.32-5.85 273.27-4.8 272.52-3.98 271.77-3.15 271.77-2.65L271.77-2.65Q271.77-1.65 274.1-1.03 276.43-0.4 279.07-0.4Z" opacity="1" transform="matrix(1,0,0,1,0,0)" fill="#000000" class="wordmark-text-0" data-fill-palette-color="primary" id="text-0"></path></svg></g></svg></g></svg></g></svg></g></svg></g><defs></defs></svg><rect width="395.52" height="56.63064718162839" fill="none" stroke="none" visibility="hidden"></rect></g></svg></g></svg>